<svg width="293" height="308" viewBox="0 0 293 308" fill="none" xmlns="http://www.w3.org/2000/svg">
<path fill-rule="evenodd" clip-rule="evenodd" d="M293 96.9113C293 150.441 251.541 193.838 200.414 193.838C191.097 193.838 169.855 191.59 159.527 182.565L146.606 196.086C139.003 204.048 141.054 206.389 144.438 210.239C145.844 211.856 147.485 213.719 148.759 216.383C148.759 216.383 159.527 232.153 148.759 247.938C142.299 256.947 124.206 269.559 103.55 247.938L99.2434 252.434C99.2434 252.434 112.15 268.219 101.397 284.004C94.9364 293.013 77.7084 302.022 62.6339 286.253L47.574 302.022C37.2313 312.848 24.6033 306.534 19.5931 302.022L6.65748 288.501C-5.3992 275.873 1.63264 262.198 6.65748 256.931L118.61 139.738C118.61 139.738 107.843 121.72 107.843 96.9267C107.843 43.3968 149.301 0 200.429 0C251.556 0 293 43.3968 293 96.9113ZM200.429 130.729C208.974 130.746 217.176 127.194 223.23 120.855C229.285 114.516 232.697 105.909 232.717 96.9267C232.709 92.4775 231.868 88.0736 230.241 83.9662C228.614 79.8588 226.234 76.1285 223.235 72.9882C220.237 69.8479 216.68 67.3591 212.767 65.664C208.854 63.9688 204.661 63.1005 200.429 63.1086C196.196 63.1005 192.004 63.9688 188.091 65.664C184.177 67.3591 180.62 69.8479 177.622 72.9882C174.624 76.1285 172.243 79.8588 170.617 83.9662C168.99 88.0736 168.149 92.4775 168.141 96.9267C168.16 105.909 171.572 114.516 177.627 120.855C183.682 127.194 191.883 130.746 200.429 130.729Z" fill="#522318"/>
</svg>
