<svg width="362" height="328" viewBox="0 0 362 328" fill="none" xmlns="http://www.w3.org/2000/svg">
<path d="M181 315.016L186.644 326.559C184.899 327.506 182.964 328 181 328C179.036 328 177.101 327.506 175.356 326.559L175.307 326.524L175.192 326.472L174.78 326.247C144.151 308.753 115.3 288.017 88.6735 264.362C46.0727 226.238 0 170.15 0 104.077V104.059C0 44.1815 46.5499 0 94.3833 0C132.13 0 162.587 21.2168 181 53.7342C199.429 21.2168 229.87 0 267.617 0C315.434 0 362 44.1642 362 104.077C362 170.15 315.911 226.255 273.326 264.362C246.7 288.016 217.848 308.752 187.22 326.247L186.808 326.472L186.693 326.524L186.66 326.542L181 315.016ZM94.3833 25.9586C60.1743 25.9586 24.6818 58.4933 24.6818 104.077C24.6818 157.845 62.9222 207.219 104.667 244.599C128.019 265.349 153.174 283.745 179.799 299.545L181 300.254L182.201 299.562C186.66 296.914 193.078 292.986 200.795 287.898C216.262 277.722 236.83 262.96 257.333 244.599C299.078 207.219 337.318 157.845 337.318 104.077C337.318 58.4933 301.826 25.9586 267.617 25.9586C232.963 25.9586 205.073 49.9962 192.699 89.0033C191.868 91.5729 190.293 93.8045 188.195 95.3848C186.097 96.9651 183.581 97.8149 181 97.8149C178.419 97.8149 175.903 96.9651 173.805 95.3848C171.707 93.8045 170.132 91.5729 169.301 89.0033C156.927 49.9962 129.02 25.9586 94.3833 25.9586Z" fill="#3C2520"/>
</svg>
