<svg width="428" height="303" viewBox="0 0 428 303" fill="none" xmlns="http://www.w3.org/2000/svg">
<path d="M397.429 0H30.5714C22.4634 0 14.6874 3.19231 8.95416 8.87466C3.22091 14.557 0 22.2639 0 30.3V272.7C0 280.736 3.22091 288.443 8.95416 294.125C14.6874 299.808 22.4634 303 30.5714 303H397.429C405.537 303 413.313 299.808 419.046 294.125C424.779 288.443 428 280.736 428 272.7V30.3C428 22.2639 424.779 14.557 419.046 8.87466C413.313 3.19231 405.537 0 397.429 0ZM363.8 30.3L214 133.017L64.2 30.3H363.8ZM30.5714 272.7V44.0865L205.287 163.923C207.846 165.682 210.886 166.625 214 166.625C217.114 166.625 220.154 165.682 222.713 163.923L397.429 44.0865V272.7H30.5714Z" fill="#E3CFBC"/>
</svg>
