<svg width="380" height="379" viewBox="0 0 380 379" fill="none" xmlns="http://www.w3.org/2000/svg">
<path d="M20.6286 104.415C36.7594 73.019 61.5052 46.6267 92.1002 28.1875C122.695 9.74839 157.934 -0.0110586 193.878 9.40358e-06C246.128 9.40358e-06 290.021 18.7795 323.582 49.3648L267.997 103.713C247.892 84.9339 222.339 75.3642 193.878 75.3642C143.372 75.3642 100.622 108.716 85.4031 153.495C81.5255 164.865 79.3153 176.993 79.3153 189.5C79.3153 202.007 81.5255 214.135 85.4031 225.505C100.642 270.303 143.372 303.636 193.878 303.636C219.954 303.636 242.153 296.909 259.524 285.539C269.595 279.058 278.217 270.648 284.868 260.818C291.52 250.988 296.063 239.942 298.222 228.348H193.878V155.049H376.471C378.759 167.442 380 180.366 380 193.802C380 251.523 358.867 300.111 322.186 333.084C290.118 362.04 246.225 379 193.878 379C168.414 379.01 143.199 374.115 119.672 364.595C96.1449 355.076 74.7679 341.118 56.7627 323.519C38.7575 305.92 24.477 285.026 14.7373 262.03C4.99766 239.035 -0.0101759 214.388 1.55241e-05 189.5C1.55241e-05 158.915 7.48369 129.997 20.6286 104.415Z" fill="#F8F1EE"/>
</svg>
