<svg width="222" height="224" viewBox="0 0 222 224" fill="none" xmlns="http://www.w3.org/2000/svg">
<path fill-rule="evenodd" clip-rule="evenodd" d="M74 65.3333C74 55.4319 77.8982 45.936 84.837 38.9347C91.7759 31.9333 101.187 28 111 28C120.813 28 130.224 31.9333 137.163 38.9347C144.102 45.936 148 55.4319 148 65.3333C148 75.2347 144.102 84.7306 137.163 91.732C130.224 98.7333 120.813 102.667 111 102.667C101.187 102.667 91.7759 98.7333 84.837 91.732C77.8982 84.7306 74 75.2347 74 65.3333ZM74 121.333C61.7337 121.333 49.9699 126.25 41.2963 135.002C32.6228 143.753 27.75 155.623 27.75 168C27.75 175.426 30.6737 182.548 35.8778 187.799C41.0819 193.05 48.1402 196 55.5 196H166.5C173.86 196 180.918 193.05 186.122 187.799C191.326 182.548 194.25 175.426 194.25 168C194.25 155.623 189.377 143.753 180.704 135.002C172.03 126.25 160.266 121.333 148 121.333H74Z" fill="#522318"/>
</svg>
