<svg width="381" height="381" viewBox="0 0 381 381" fill="none" xmlns="http://www.w3.org/2000/svg">
<path d="M292.227 65.913C287.706 65.913 283.286 67.2537 279.527 69.7656C275.767 72.2775 272.837 75.8477 271.107 80.0249C269.377 84.202 268.924 88.7984 269.806 93.2328C270.688 97.6672 272.866 101.74 276.063 104.937C279.26 108.134 283.333 110.312 287.767 111.194C292.202 112.076 296.798 111.623 300.975 109.893C305.152 108.163 308.722 105.233 311.234 101.473C313.746 97.714 315.087 93.2943 315.087 88.773C315.087 82.7101 312.679 76.8956 308.391 72.6085C304.104 68.3215 298.29 65.913 292.227 65.913ZM379.857 112.014C379.487 96.2082 376.526 80.5701 371.094 65.7225C366.25 53.0187 358.711 41.5153 348.996 32.004C339.563 22.2395 328.033 14.7481 315.277 10.0965C300.469 4.49886 284.814 1.47085 268.986 1.143C248.793 -1.0645e-06 242.316 0 190.5 0C138.684 0 132.207 -1.0645e-06 112.014 1.143C96.1864 1.47085 80.5309 4.49886 65.7225 10.0965C52.9909 14.7952 41.4706 22.2801 32.004 32.004C22.2395 41.4371 14.7481 52.9674 10.0965 65.7225C4.49886 80.5309 1.47085 96.1864 1.143 112.014C-1.0645e-06 132.207 0 138.684 0 190.5C0 242.316 -1.0645e-06 248.793 1.143 268.986C1.47085 284.814 4.49886 300.469 10.0965 315.277C14.7481 328.033 22.2395 339.563 32.004 348.996C41.4706 358.72 52.9909 366.205 65.7225 370.903C80.5309 376.501 96.1864 379.529 112.014 379.857C132.207 381 138.684 381 190.5 381C242.316 381 248.793 381 268.986 379.857C284.814 379.529 300.469 376.501 315.277 370.903C328.033 366.252 339.563 358.761 348.996 348.996C358.754 339.52 366.3 328.007 371.094 315.277C376.526 300.43 379.487 284.792 379.857 268.986C379.857 248.793 381 242.316 381 190.5C381 138.684 381 132.207 379.857 112.014ZM345.567 266.7C345.428 278.792 343.238 290.774 339.09 302.133C336.048 310.423 331.163 317.914 324.802 324.04C318.624 330.337 311.148 335.212 302.895 338.328C291.536 342.476 279.554 344.666 267.462 344.805C248.412 345.757 241.363 345.948 191.262 345.948C141.16 345.948 134.112 345.948 115.062 344.805C102.506 345.04 90.0035 343.107 78.105 339.09C70.2141 335.815 63.0813 330.952 57.15 324.802C50.8271 318.683 46.0028 311.185 43.053 302.895C38.4021 291.373 35.8224 279.119 35.433 266.7C35.433 247.65 34.29 240.601 34.29 190.5C34.29 140.398 34.29 133.35 35.433 114.3C35.5184 101.938 37.7752 89.6864 42.1005 78.105C45.4542 70.0642 50.6018 62.8966 57.15 57.15C62.9376 50.6 70.0904 45.398 78.105 41.91C89.7169 37.7198 101.956 35.5298 114.3 35.433C133.35 35.433 140.398 34.29 190.5 34.29C240.601 34.29 247.65 34.29 266.7 35.433C278.792 35.5717 290.774 37.7618 302.133 41.91C310.79 45.1228 318.56 50.3462 324.802 57.15C331.045 63.0017 335.923 70.1561 339.09 78.105C343.324 89.7052 345.515 101.951 345.567 114.3C346.519 133.35 346.71 140.398 346.71 190.5C346.71 240.601 346.519 247.65 345.567 266.7ZM190.5 92.7735C171.18 92.8112 152.304 98.5747 136.258 109.336C120.212 120.097 107.716 135.373 100.348 153.234C92.9809 171.094 91.0728 190.737 94.8651 209.682C98.6574 228.627 107.98 246.022 121.655 259.67C135.33 273.318 152.743 282.607 171.695 286.362C190.647 290.118 210.287 288.171 228.133 280.769C245.979 273.367 261.23 260.841 271.96 244.774C282.69 228.707 288.417 209.82 288.417 190.5C288.442 177.643 285.925 164.908 281.011 153.028C276.097 141.147 268.882 130.356 259.782 121.273C250.682 112.191 239.877 104.997 227.987 100.106C216.096 95.2153 203.357 92.7232 190.5 92.7735ZM190.5 253.936C177.953 253.936 165.689 250.216 155.257 243.246C144.824 236.275 136.694 226.368 131.892 214.776C127.091 203.185 125.835 190.43 128.282 178.124C130.73 165.819 136.772 154.515 145.644 145.644C154.515 136.772 165.819 130.73 178.124 128.282C190.43 125.835 203.185 127.091 214.776 131.892C226.368 136.694 236.275 144.824 243.246 155.257C250.216 165.689 253.936 177.953 253.936 190.5C253.936 198.831 252.296 207.08 249.108 214.776C245.92 222.473 241.247 229.466 235.356 235.356C229.466 241.247 222.473 245.92 214.776 249.108C207.08 252.296 198.831 253.936 190.5 253.936Z" fill="#E3CFBC"/>
</svg>
